<?xml version="1.0" encoding="iso-8859-1"?>
<!-- Uploaded to: SVG Repo, www.svgrepo.com, Generator: SVG Repo Mixer Tools -->
<!DOCTYPE svg PUBLIC "-//W3C//DTD SVG 1.1//EN" "http://www.w3.org/Graphics/SVG/1.1/DTD/svg11.dtd">
<svg fill="#000000" version="1.1" id="Capa_1" xmlns="http://www.w3.org/2000/svg" xmlns:xlink="http://www.w3.org/1999/xlink" 
	 width="800px" height="800px" viewBox="0 0 950 950" xml:space="preserve">
<g>
	<g>
		<path d="M938.399,172.247H11.601C5.194,172.247,0,176.866,0,182.562v584.875c0,5.698,5.194,10.316,11.601,10.316h926.798
			c6.406,0,11.601-4.619,11.601-10.316V182.562C950,176.865,944.806,172.247,938.399,172.247z M899,757.151h-39.202
			c-5.128,0-9.285-4.157-9.285-9.285s4.157-9.285,9.285-9.285H899c5.128,0,9.285,4.157,9.285,9.285S904.128,757.151,899,757.151z
			 M913.099,709.892c0,4.839-4.791,8.762-10.699,8.762H47.601c-5.91,0-10.7-3.922-10.7-8.762V217.598
			c0-4.838,4.791-8.761,10.7-8.761h854.798c5.909,0,10.699,3.922,10.699,8.761V709.892z"/>
		<path d="M475,241.755c-122.602,0-221.989,99.388-221.989,221.99c0,122.601,99.389,221.989,221.989,221.989
			s221.989-99.389,221.989-221.989C696.989,341.144,597.602,241.755,475,241.755z M659.282,541.583
			c-2.684,6.342-5.685,12.507-8.977,18.494l-85.147,12.674c-2.904,0.432-6.189,2.973-7.338,5.674l-33.695,79.243
			c-15.945,4.03-32.377,6.066-49.126,6.066s-33.181-2.037-49.126-6.066l-33.695-79.243c-1.148-2.702-4.434-5.242-7.338-5.674
			l-85.148-12.674c-3.291-5.987-6.293-12.152-8.976-18.494c-8.001-18.917-12.962-38.749-14.841-59.161l63.314-58.264
			c2.161-1.988,3.453-5.936,2.888-8.816l-16.59-84.41c2.61-2.933,5.303-5.806,8.098-8.601
			c17.879-17.879,38.621-32.005,61.664-42.033l75.11,42.063c2.562,1.435,6.716,1.435,9.276,0l75.111-42.063
			c23.043,10.028,43.785,24.154,61.664,42.033c2.795,2.795,5.486,5.668,8.098,8.601l-16.59,84.41
			c-0.566,2.881,0.726,6.828,2.887,8.816l63.315,58.264C672.244,502.833,667.284,522.666,659.282,541.583z"/>
		<path d="M556.2,433.982l-76.899-55.871c-2.375-1.727-6.226-1.727-8.602,0L393.8,433.982c-2.375,1.726-3.564,5.388-2.658,8.18
			l29.373,90.4c0.907,2.793,4.023,5.057,6.959,5.057h95.054c2.936,0,6.051-2.264,6.958-5.057l29.373-90.4
			C559.766,439.371,558.576,435.708,556.2,433.982z"/>
	</g>
</g>
</svg>